# xmcd
# Track frame offsets:
# 183
# 14803
# 27130
# 40438
# 51980
# 70330
# 83073
# 96805
# 117970
# 129005
# 150548
# 168405
# 178798
# 194370
# 204650
# 214290
# 231743
# 244395
# 256020
# 272445
# 286173
# 301738
# 318025
#
# Disc length: 4451 seconds
# Revision: 1
# Processed by: cddbd v1.5.2PL0 Copyright (c) Steve Scherf et al.
# Submitted via: VisiTrax 2.11.2.271 - For more info visit www.synapsa.com
#
DISCID=45116117
DTITLE=Merle Haggard - Okie from Muskogee
DYEAR=1996
DGENRE=Country
TTITLE0=Twinkle twinkle lucky star
TTITLE1=If you want to be my woman
TTITLE2=Workin' man blues
TTITLE3=Always late with your kisses
TTITLE4=Footlights
TTITLE5=Big city
TTITLE6=Mana tried
TTITLE7=Brain cloudy blues/Milk cow blues
TTITLE8=Begging to you
TTITLE9=The bottle let me down
TTITLE10=What am I gonna do with the rest of my life
TTITLE11=Ida Red
TTITLE12=San Antonio Rose
TTITLE13=Corinne Corinna
TTITLE14=Take me back to Tulsa
TTITLE15=Faded love
TTITLE16=Fiddle breakdown
TTITLE17=Roght or wrong
TTITLE18=Ramblin' fever
TTITLE19=That's the way love goes
TTITLE20=Today I started loving you again
TTITLE21=Okie from Muskogee
TTITLE22=The fightin' side of me
EXTD=
EXTT0=
EXTT1=
EXTT2=
EXTT3=
EXTT4=
EXTT5=
EXTT6=
EXTT7=
EXTT8=
EXTT9=
EXTT10=
EXTT11=
EXTT12=
EXTT13=
EXTT14=
EXTT15=
EXTT16=
EXTT17=
EXTT18=
EXTT19=
EXTT20=
EXTT21=
EXTT22=
PLAYORDER=
